<?xml version="1.0" encoding="utf-8"?>
<svg version="1.1" id="Layer_1" xmlns="http://www.w3.org/2000/svg" xmlns:xlink="http://www.w3.org/1999/xlink" x="0px" y="0px"
	 viewBox="451.451 -28.549 1657.098 1657.098" enable-background="new 451.451 -28.549 1657.098 1657.098" xml:space="preserve">
<g>
	<g>
		<circle cx="992.682" cy="640.47" r="66.818"/>
	</g>
	<g>
		<circle cx="1558.728" cy="640.47" r="66.818"/>
	</g>
	<g>
		<path d="M1280,1600c-107.984,0-212.756-21.157-311.407-62.883c-95.268-40.295-180.819-97.973-254.279-171.432
			c-73.459-73.459-131.137-159.01-171.432-254.278C501.157,1012.757,480,907.984,480,800s21.157-212.756,62.883-311.407
			c40.295-95.268,97.973-180.819,171.432-254.279c73.46-73.459,159.011-131.137,254.279-171.432C1067.244,21.157,1172.016,0,1280,0
			s212.757,21.157,311.407,62.883c95.268,40.295,180.819,97.973,254.278,171.432c73.459,73.46,131.137,159.011,171.432,254.279
			C2058.843,587.244,2080,692.016,2080,800s-21.157,212.757-62.883,311.407c-40.295,95.268-97.973,180.819-171.432,254.278
			s-159.01,131.137-254.278,171.432C1492.757,1578.843,1387.984,1600,1280,1600z M1280,71.591
			c-401.646,0-728.409,326.763-728.409,728.409S878.354,1528.409,1280,1528.409S2008.409,1201.646,2008.409,800
			C2008.409,398.354,1681.646,71.591,1280,71.591z"/>
	</g>
	<g>
		<path d="M1665.953,1071.004c-213.156,213.156-558.75,213.156-771.905,0c20.534-20.534,41.068-41.068,61.602-61.602
			c179.134,179.134,469.567,179.134,648.7,0C1624.884,1029.936,1645.418,1050.47,1665.953,1071.004z"/>
	</g>
	<g>
		<path d="M1167.066,463.279c-96.31-96.31-252.459-96.31-348.768,0c16.971,16.971,33.941,33.941,50.912,50.912
			c68.192-68.192,178.753-68.192,246.945,0C1133.125,497.22,1150.096,480.249,1167.066,463.279z"/>
	</g>
	<g>
		<path d="M1733.112,463.279c-96.31-96.31-252.459-96.31-348.768,0c16.971,16.971,33.941,33.941,50.912,50.912
			c68.192-68.192,178.753-68.192,246.945,0C1699.171,497.22,1716.142,480.249,1733.112,463.279z"/>
	</g>
</g>
</svg>
